<?xml version="1.0" encoding="utf-8"?>
<!-- Generator: Adobe Illustrator 16.0.0, SVG Export Plug-In . SVG Version: 6.00 Build 0)  -->
<!DOCTYPE svg PUBLIC "-//W3C//DTD SVG 1.1//EN" "http://www.w3.org/Graphics/SVG/1.1/DTD/svg11.dtd">
<svg version="1.1" xmlns="http://www.w3.org/2000/svg" xmlns:xlink="http://www.w3.org/1999/xlink" x="0px" y="0px"
	 width="170.385px" height="151.743px" viewBox="0 0 170.385 151.743" enable-background="new 0 0 170.385 151.743"
	 xml:space="preserve">
<g id="background">
</g>
<g id="object">
	<linearGradient id="SVGID_1_" gradientUnits="userSpaceOnUse" x1="69.7441" y1="153.0322" x2="138.9456" y2="83.8308">
		<stop  offset="0.0316" style="stop-color:#0D2333"/>
		<stop  offset="0.4443" style="stop-color:#2E796A"/>
		<stop  offset="0.7079" style="stop-color:#41AB8A"/>
	</linearGradient>
	<polygon fill="url(#SVGID_1_)" points="170.38,91.991 77.717,91.991 77.711,91.997 124.042,151.79 124.054,151.79 170.385,91.997 	
		"/>
	<polygon fill="none" points="16.444,130.592 58.823,75.899 58.816,75.891 58.823,75.899 	"/>
	<polygon fill="#22445D" points="16.444,130.592 0.025,151.781 117.621,151.781 58.823,75.899 	"/>
	<polygon fill="#22445D" points="58.823,75.899 58.816,75.891 0.018,0.007 0,75.872 0,75.891 0.011,151.781 0.011,151.781 
		-0.001,151.79 0.009,151.804 0.018,151.79 0.025,151.781 0.025,151.781 0.025,151.781 16.444,130.592 	"/>
	<polygon fill="#22445D" points="37.253,41.944 37.252,41.944 57.761,68.415 78.271,41.944 	"/>
	<polygon fill="#0D2333" points="117.629,151.79 117.636,151.781 117.621,151.781 	"/>
	<polygon fill="#0D2333" points="58.83,75.891 58.816,75.891 58.823,75.899 	"/>
	<polygon fill="#0D2333" points="0.023,0 0.012,0 0.018,0.007 	"/>
	
		<linearGradient id="SVGID_2_" gradientUnits="userSpaceOnUse" x1="0.0156" y1="2494.7471" x2="0.0156" y2="2494.7256" gradientTransform="matrix(1 0 0 -1 0 2646.5332)">
		<stop  offset="0" style="stop-color:#0D2333"/>
		<stop  offset="0.0244" style="stop-color:#0F2738"/>
		<stop  offset="0.1349" style="stop-color:#183449"/>
		<stop  offset="0.2718" style="stop-color:#1E3D54"/>
		<stop  offset="0.4647" style="stop-color:#21435B"/>
		<stop  offset="1" style="stop-color:#22445D"/>
	</linearGradient>
	<polygon fill="url(#SVGID_2_)" points="0.021,151.808 0.012,151.796 0.019,151.786 	"/>
	<linearGradient id="SVGID_3_" gradientUnits="userSpaceOnUse" x1="-62.7549" y1="-7.0303" x2="54.4577" y2="76.9616">
		<stop  offset="0.3731" style="stop-color:#0D2333"/>
		<stop  offset="0.3979" style="stop-color:#394B58"/>
		<stop  offset="0.4254" style="stop-color:#62707B"/>
		<stop  offset="0.4563" style="stop-color:#88939B"/>
		<stop  offset="0.49" style="stop-color:#A8B0B6"/>
		<stop  offset="0.5272" style="stop-color:#C4C9CD"/>
		<stop  offset="0.5692" style="stop-color:#DADDDF"/>
		<stop  offset="0.6182" style="stop-color:#EBECEE"/>
		<stop  offset="0.6789" style="stop-color:#F6F7F8"/>
		<stop  offset="0.7639" style="stop-color:#FDFDFD"/>
		<stop  offset="1" style="stop-color:#FFFFFF"/>
	</linearGradient>
	<polygon opacity="0.5" fill="url(#SVGID_3_)" points="58.798,75.886 47.993,61.942 0,0.004 0,75.872 	"/>
	
		<linearGradient id="SVGID_4_" gradientUnits="userSpaceOnUse" x1="0" y1="-1491.2231" x2="58.8232" y2="-1491.2231" gradientTransform="matrix(1 0 0 -1 0 -1377.3984)">
		<stop  offset="0.0316" style="stop-color:#0D2333"/>
		<stop  offset="0.0561" style="stop-color:#13323D"/>
		<stop  offset="0.1177" style="stop-color:#1F5251"/>
		<stop  offset="0.1869" style="stop-color:#2A6E63"/>
		<stop  offset="0.2646" style="stop-color:#328571"/>
		<stop  offset="0.3545" style="stop-color:#39967D"/>
		<stop  offset="0.4643" style="stop-color:#3EA284"/>
		<stop  offset="0.6151" style="stop-color:#40A989"/>
		<stop  offset="1" style="stop-color:#41AB8A"/>
	</linearGradient>
	<polygon fill="url(#SVGID_4_)" points="42.404,97.084 58.823,75.896 0,75.872 0.025,151.777 	"/>
</g>
</svg>
