<?xml version="1.0" encoding="utf-8"?>
<!-- Generator: Adobe Illustrator 16.0.0, SVG Export Plug-In . SVG Version: 6.00 Build 0)  -->
<!DOCTYPE svg PUBLIC "-//W3C//DTD SVG 1.1//EN" "http://www.w3.org/Graphics/SVG/1.1/DTD/svg11.dtd">
<svg version="1.1" xmlns="http://www.w3.org/2000/svg" xmlns:xlink="http://www.w3.org/1999/xlink" x="0px" y="0px" width="46.2px"
	 height="46.2px" viewBox="0 0 46.2 46.2" enable-background="new 0 0 46.2 46.2" xml:space="preserve">
<g>
	<path fill="#52545C" d="M33.465,0H12.735C5.702,0,0,5.702,0,12.735v20.729C0,40.499,5.702,46.2,12.735,46.2h20.729
		c7.033,0,12.735-5.701,12.735-12.735V12.735C46.2,5.702,40.498,0,33.465,0z M42.467,33.412c0,5.001-4.054,9.055-9.055,9.055H12.788
		c-5.001,0-9.055-4.054-9.055-9.055V12.788c0-5.001,4.054-9.055,9.055-9.055h20.624c5.001,0,9.055,4.054,9.055,9.055V33.412z"/>
	<path fill="#63A674" d="M23.1,10.925c-6.724,0-12.175,5.451-12.175,12.176c0,6.724,5.451,12.175,12.175,12.175
		c6.725,0,12.176-5.451,12.176-12.175C35.275,16.376,29.824,10.925,23.1,10.925z M23.1,31.041c-4.386,0-7.94-3.555-7.94-7.94
		s3.555-7.941,7.94-7.941s7.941,3.556,7.941,7.941S27.485,31.041,23.1,31.041z"/>
	<circle fill="#63A674" cx="35.689" cy="10.521" r="2.731"/>
</g>
</svg>
