<?xml version="1.0" encoding="utf-8"?>
<!-- Generator: Adobe Illustrator 16.0.0, SVG Export Plug-In . SVG Version: 6.00 Build 0)  -->
<!DOCTYPE svg PUBLIC "-//W3C//DTD SVG 1.1//EN" "http://www.w3.org/Graphics/SVG/1.1/DTD/svg11.dtd">
<svg version="1.1" xmlns="http://www.w3.org/2000/svg" xmlns:xlink="http://www.w3.org/1999/xlink" x="0px" y="0px"
	 width="44.897px" height="44.896px" viewBox="0 0 44.897 44.896" enable-background="new 0 0 44.897 44.896" xml:space="preserve">
<g>
	<path fill="#63A674" d="M30.068,28.111c0-4.203-3.419-7.621-7.62-7.621c-0.575,0-1.147,0.064-1.701,0.19
		c-0.011,0.002-0.282,0.063-0.512,0.136c-0.349,0.111-0.543,0.484-0.432,0.835c0.11,0.348,0.483,0.541,0.833,0.431
		c0.174-0.056,0.399-0.106,0.404-0.107c0.459-0.104,0.933-0.157,1.408-0.157c3.471,0,6.295,2.823,6.295,6.294
		s-2.824,6.293-6.295,6.293s-6.294-2.822-6.294-6.293c0-1.774,0.755-3.477,2.071-4.668c0.272-0.247,0.293-0.665,0.047-0.937
		c-0.246-0.271-0.666-0.293-0.938-0.047c-1.593,1.442-2.507,3.502-2.507,5.651c0,4.201,3.418,7.62,7.621,7.62
		C26.649,35.731,30.068,32.313,30.068,28.111z"/>
	<path fill="#52545C" d="M38.321,6.575C34.083,2.334,28.444,0,22.448,0C14.307,0,6.786,4.423,2.821,11.544
		c-0.001,0.004-0.003,0.007-0.005,0.01L2.48,12.181c-0.172,0.321-0.051,0.721,0.27,0.893c0.321,0.171,0.72,0.051,0.892-0.271
		l0.333-0.622c0.443-0.795,0.934-1.555,1.466-2.276c2.601,1.128,5.323,1.811,7.969,2.227c-0.504,1.637-0.888,3.353-1.146,5.136
		c-0.154,1.065-0.258,2.136-0.315,3.202c-0.286,0.393-0.551,0.802-0.792,1.228H1.332c0.075-2.146,0.47-4.251,1.179-6.266
		c0.121-0.343-0.06-0.721-0.403-0.841s-0.719,0.06-0.84,0.402C0.427,17.383,0,19.892,0,22.448c0,5.996,2.334,11.633,6.575,15.873
		c4.24,4.24,9.877,6.575,15.874,6.575s11.635-2.335,15.873-6.575c4.24-4.24,6.576-9.877,6.576-15.873
		C44.897,16.451,42.562,10.815,38.321,6.575z M43.563,21.696h-9.826c-0.24-0.426-0.506-0.835-0.791-1.228
		c-0.059-1.066-0.162-2.137-0.315-3.202c-0.261-1.809-0.652-3.547-1.168-5.204c1.665-0.28,3.279-0.643,4.835-1.087
		c0.898-0.258,2.033-0.604,3.156-1.074C41.984,13.314,43.415,17.393,43.563,21.696z M31.479,18.779
		c-2.336-2.27-5.523-3.669-9.031-3.669s-6.694,1.398-9.032,3.669c0.047-0.44,0.1-0.882,0.163-1.322
		c0.258-1.788,0.653-3.508,1.169-5.137c2.508,0.315,4.915,0.413,7.045,0.442c0.29,0.005,0.578,0.007,0.865,0.007
		c2.581,0,5.077-0.169,7.472-0.504c0.524,1.645,0.925,3.384,1.187,5.191C31.38,17.897,31.435,18.339,31.479,18.779z M37.39,7.507
		c0.423,0.422,0.824,0.86,1.205,1.312C37.647,9.192,36.7,9.48,35.933,9.7c-1.572,0.449-3.207,0.812-4.896,1.088
		c-0.402-1.121-0.861-2.201-1.381-3.235c-1.184-2.356-2.625-4.376-4.294-6.035C29.9,2.139,34.093,4.21,37.39,7.507z M21.714,1.331
		c0.244-0.009,0.489-0.013,0.734-0.013c0.246,0,0.491,0.005,0.735,0.015c2.787,2.295,5.03,5.654,6.508,9.654
		c-2.518,0.338-5.149,0.49-7.878,0.451c-2.011-0.03-4.273-0.12-6.626-0.402C16.666,7.014,18.915,3.636,21.714,1.331z M6.296,8.824
		c3.353-3.968,8.067-6.582,13.233-7.303c-1.668,1.657-3.106,3.678-4.289,6.031c-0.53,1.055-0.998,2.156-1.405,3.3
		C11.328,10.473,8.754,9.849,6.296,8.824z M1.326,23.023h9.176c-0.662,1.556-1.028,3.266-1.028,5.061
		c0,1.755,0.354,3.477,1.032,5.072c-1.738,0.412-3.477,0.963-5.164,1.701C2.84,31.425,1.44,27.334,1.326,23.023z M7.507,37.389
		c-0.466-0.465-0.906-0.949-1.322-1.448c1.605-0.678,3.261-1.184,4.918-1.56c0.092,0.166,0.187,0.331,0.287,0.493
		c1.639,2.663,4.191,4.891,6.66,7.045c0.584,0.509,1.146,1.001,1.686,1.487C15.12,42.818,10.852,40.733,7.507,37.389z
		 M22.766,43.575c-0.105,0.001-0.211,0.002-0.317,0.002c-0.125,0-0.249-0.001-0.373-0.003c-0.192-0.056-0.374-0.155-0.528-0.3
		c-0.824-0.783-1.699-1.548-2.625-2.355c-2.394-2.089-4.869-4.249-6.402-6.739c-1.125-1.83-1.72-3.937-1.72-6.096
		c0-6.423,5.225-11.647,11.648-11.647c6.422,0,11.647,5.225,11.647,11.647c0,1.13-0.165,2.255-0.489,3.343
		c-0.539,1.802-1.565,3.53-3.137,5.283c-1.342,1.496-2.936,2.861-4.479,4.183c-0.904,0.775-1.842,1.576-2.7,2.385
		C23.137,43.422,22.956,43.521,22.766,43.575z M37.39,37.389c-3.355,3.357-7.642,5.444-12.277,6.024
		c0.562-0.5,1.141-0.998,1.742-1.514c1.574-1.349,3.202-2.742,4.602-4.305c0.936-1.041,1.693-2.081,2.285-3.135
		c0.744,0.168,1.474,0.354,2.191,0.56c0.797,0.229,1.789,0.529,2.773,0.927C38.292,36.443,37.854,36.926,37.39,37.389z
		 M36.298,33.743c-0.639-0.183-1.288-0.351-1.945-0.506c0.207-0.472,0.381-0.949,0.525-1.432c0.361-1.211,0.545-2.463,0.545-3.722
		c0-1.795-0.367-3.505-1.028-5.061h9.176c-0.114,4.311-1.515,8.403-4.017,11.837C38.397,34.368,37.222,34.009,36.298,33.743z"/>
</g>
</svg>
