<?xml version="1.0" encoding="utf-8"?>
<!-- Generator: Adobe Illustrator 16.0.0, SVG Export Plug-In . SVG Version: 6.00 Build 0)  -->
<!DOCTYPE svg PUBLIC "-//W3C//DTD SVG 1.1//EN" "http://www.w3.org/Graphics/SVG/1.1/DTD/svg11.dtd">
<svg version="1.1" xmlns="http://www.w3.org/2000/svg" xmlns:xlink="http://www.w3.org/1999/xlink" x="0px" y="0px"
	 width="85.819px" height="105.259px" viewBox="0 0 85.819 105.259" enable-background="new 0 0 85.819 105.259"
	 xml:space="preserve">
<g>
	<polygon fill="#22445D" points="0.001,44.601 0,44.601 14.168,26.316 28.336,44.601 	"/>
	<polygon fill="#0D2333" points="45.044,52.628 126.595,52.628 126.595,52.628 126.595,52.628 126.602,52.628 126.602,52.628 
		126.599,52.632 85.823,105.255 85.819,105.259 85.815,105.255 45.04,52.632 45.036,52.628 45.044,52.628 45.044,52.628 	"/>
	<path fill="none" d="M45.044,52.628L45.044,52.628L45.044,52.628z"/>
	<polygon fill="#41AB8A" points="85.823,0 126.602,52.628 45.024,52.628 	"/>
	<polygon fill="#41AB8A" points="32.491,46.816 56.966,78.402 56.97,78.406 56.964,78.406 8.013,78.406 	"/>
</g>
</svg>
