<svg xmlns="http://www.w3.org/2000/svg" width="1920" height="1080" viewBox="0 0 1920 1080">
  <defs>
    <style>
      .cls-1 {
        fill: #fff;
      }

      .cls-2 {
        fill: none;
      }

      .cls-3 {
        fill: #24394a;
      }

      .cls-4 {
        fill: #22445d;
      }

      .cls-5 {
        fill: #41ab8a;
      }

      .cls-6 {
        fill: #0d2333;
      }

      .cls-7 {
        fill: #162e41;
      }
    </style>
  </defs>
  <title>segitiga abstrak2</title>
  <g id="object">
    <rect class="cls-1" width="1920" height="1080"/>
    <polygon class="cls-2" points="1662.65 51.06 1662.64 51.05 1662.66 51.05 1662.65 51.06"/>
    <polygon class="cls-3" points="1491.09 51.05 1662.64 51.05 1623.09 0 1530.65 0 1491.09 51.05"/>
    <polygon class="cls-4" points="1834.21 51.08 1919.98 161.76 1748.45 161.76 1834.21 51.08"/>
    <polygon class="cls-3" points="1834.21 51.08 1748.45 161.76 1748.43 161.76 1748.43 161.76 1748.4 161.76 1576.88 161.76 1662.65 51.06 1662.66 51.05 1834.19 51.05 1834.2 51.06 1834.21 51.05 1834.22 51.05 1834.23 51.06 1834.21 51.08"/>
    <polygon class="cls-5" points="1662.64 51.05 1834.19 51.05 1834.1 50.94 1833.75 50.94 1833.93 50.71 1794.63 0 1702.19 0 1662.64 51.05"/>
    <polygon class="cls-5" points="1833.93 50.71 1833.75 50.94 1834.1 50.94 1833.93 50.71"/>
    <polygon class="cls-4" points="1623.09 0 1662.64 51.05 1702.19 0 1623.09 0"/>
    <polygon class="cls-4" points="1794.63 0 1833.93 50.71 1873.23 0 1794.63 0"/>
    <polygon class="cls-6" points="1662.62 51.05 1662.64 51.05 1662.63 51.06 1662.62 51.05"/>
    <polygon class="cls-6" points="1919.98 161.76 1920 161.76 1919.99 161.78 1919.98 161.76"/>
    <polygon class="cls-6" points="1491.04 51.05 1491.06 51.05 1491.05 51.06 1491.04 51.05"/>
    <polygon class="cls-5" points="1833.93 50.71 1834.1 50.94 1919.51 50.94 1919.51 0 1873.23 0 1833.93 50.71"/>
    <polygon class="cls-5" points="1833.75 50.94 1834.1 50.94 1833.93 50.71 1833.75 50.94"/>
    <polygon class="cls-7" points="1748.37 161.77 1576.82 161.77 1662.6 51.07 1748.37 161.77"/>
  </g>
</svg>
