<?xml version="1.0" encoding="utf-8"?>
<!-- Generator: Adobe Illustrator 16.0.0, SVG Export Plug-In . SVG Version: 6.00 Build 0)  -->
<!DOCTYPE svg PUBLIC "-//W3C//DTD SVG 1.1//EN" "http://www.w3.org/Graphics/SVG/1.1/DTD/svg11.dtd">
<svg version="1.1" id="Layer_1" xmlns="http://www.w3.org/2000/svg" xmlns:xlink="http://www.w3.org/1999/xlink" x="0px" y="0px"
	 width="141.732px" height="141.732px" viewBox="0 0 141.732 141.732" enable-background="new 0 0 141.732 141.732"
	 xml:space="preserve">
<g id="code_x5F_html5">
	<g>
		<polygon fill="#E44F26" points="111.142,36.396 70.866,36.396 70.866,36.396 30.591,36.396 38.139,118.281 70.866,127.56 
			70.866,127.56 70.866,127.56 70.866,127.56 70.866,127.56 103.582,118.281 		"/>
		<path fill="#010101" d="M47.874,19.245h-4.651v-5.072h-5.144v15.288h5.144v-5.072h4.651v5.072h5.132V14.173h-5.132V19.245z
			 M83.751,14.173h-0.457l-3.186,5.228l-3.185-5.228h-0.36h-4.735h-0.241v15.288h4.976v-7.632l3.533,5.504l0.012,0.012l0,0l0,0
			l0.013-0.012l3.63-5.661v7.788h4.976V14.173h-0.349H83.751z M55.253,19.317h4.471v10.144h5.144V19.317h4.471v-5.144H55.253V19.317
			z M96.479,24.317V14.173h-5.132v15.288h1.298h3.834h7.163v-5.144H96.479z"/>
		<polygon fill="#F1662A" points="70.866,43.066 70.866,120.625 70.866,120.625 97.368,113.112 103.822,43.066 		"/>
		<polygon fill="#FFFFFF" points="96.202,53.114 45.518,53.114 48.355,83.774 48.415,83.582 83.041,83.582 81.911,96.551 
			70.866,99.735 59.652,96.503 58.979,88.654 48.799,88.654 50.254,104.339 70.866,110.192 91.479,104.339 94.315,73.559 
			57.573,73.559 56.624,63.294 95.265,63.294 		"/>
		<g>
			<path fill="#EBEBEB" d="M70.866,53.114H45.518l2.837,30.66l0.06-0.192h22.451V73.559H57.573l-0.949-10.264h14.242V53.114z
				 M58.979,88.654h-10.18l1.455,15.685l20.612,5.841V99.735l-11.214-3.232L58.979,88.654z"/>
		</g>
	</g>
</g>
</svg>
