<?xml version="1.0" encoding="utf-8"?>
<!-- Generator: Adobe Illustrator 16.0.0, SVG Export Plug-In . SVG Version: 6.00 Build 0)  -->
<!DOCTYPE svg PUBLIC "-//W3C//DTD SVG 1.1//EN" "http://www.w3.org/Graphics/SVG/1.1/DTD/svg11.dtd">
<svg version="1.1" xmlns="http://www.w3.org/2000/svg" xmlns:xlink="http://www.w3.org/1999/xlink" x="0px" y="0px"
	 width="141.732px" height="141.732px" viewBox="0 0 141.732 141.732" enable-background="new 0 0 141.732 141.732"
	 xml:space="preserve">
<g id="Layer_1">
	<g id="code_x5F_html5">
	</g>
	<g>
		<polygon fill="#E6A329" points="111.142,36.396 70.866,36.396 70.866,36.396 30.591,36.396 38.139,118.281 70.866,127.56 
			70.866,127.56 70.866,127.56 70.866,127.56 70.866,127.56 103.582,118.281 		"/>
		<polygon fill="#F1BF22" points="70.866,43.066 70.866,120.625 70.866,120.625 97.368,113.112 103.822,43.066 		"/>
		<polygon fill="#FFFFFF" points="91.951,53.114 51.188,53.114 48.355,83.774 48.415,83.582 83.041,83.582 81.911,96.551 
			70.866,99.735 59.652,96.503 58.979,88.654 48.799,88.654 50.254,104.339 70.866,110.192 91.479,104.339 94.315,73.559 
			57.573,73.559 58.042,63.294 83.544,63.294 83.919,69.169 94.19,69.169 		"/>
		<g>
			<path fill="#EBEBEB" d="M70.866,53.114H51.188l-2.833,30.66l0.06-0.192h22.451V73.559H58.991l0.468-10.264h11.407V53.114z
				 M58.979,88.654h-10.18l1.455,15.685l20.612,5.841V99.735l-11.214-3.232L58.979,88.654z"/>
		</g>
		<g>
			<polygon points="63.028,24.317 55.865,24.317 55.865,29.461 63.028,29.461 66.863,29.461 68.161,29.461 68.161,14.173 
				63.028,14.173 			"/>
			<path d="M85.868,14.251H73.374c0,0,0,2.688,0,5.354c1.67,1.672,2.543,2.472,4.961,4.89c-1.414,0-4.961,0.005-4.961,0.005v4.884
				h12.494v-4.885l-4.99-4.894h4.99V14.251z"/>
		</g>
	</g>
</g>
<g id="Layer_2">
</g>
</svg>
