<?xml version="1.0" encoding="utf-8"?>
<!-- Generator: Adobe Illustrator 16.0.0, SVG Export Plug-In . SVG Version: 6.00 Build 0)  -->
<!DOCTYPE svg PUBLIC "-//W3C//DTD SVG 1.1//EN" "http://www.w3.org/Graphics/SVG/1.1/DTD/svg11.dtd">
<svg version="1.1" xmlns="http://www.w3.org/2000/svg" xmlns:xlink="http://www.w3.org/1999/xlink" x="0px" y="0px"
	 width="85.819px" height="105.259px" viewBox="0 0 85.819 105.259" enable-background="new 0 0 85.819 105.259"
	 xml:space="preserve">
<g>
	<polygon fill="#22445D" points="85.818,44.601 85.819,44.601 71.651,26.316 57.483,44.601 	"/>
	<polygon fill="#0D2333" points="40.775,52.628 -40.775,52.628 -40.775,52.628 -40.775,52.628 -40.782,52.628 -40.782,52.628 
		-40.779,52.632 -0.004,105.255 0,105.259 0.004,105.255 40.779,52.632 40.783,52.628 40.775,52.628 40.775,52.628 	"/>
	<path fill="none" d="M40.775,52.628L40.775,52.628L40.775,52.628z"/>
	<polygon fill="#41AB8A" points="-0.004,0 -40.782,52.628 40.795,52.628 	"/>
	<polygon fill="#41AB8A" points="53.328,46.816 28.854,78.402 28.85,78.406 28.855,78.406 77.807,78.406 	"/>
</g>
</svg>
