<?xml version="1.0" encoding="utf-8"?>
<!-- Generator: Adobe Illustrator 16.0.0, SVG Export Plug-In . SVG Version: 6.00 Build 0)  -->
<!DOCTYPE svg PUBLIC "-//W3C//DTD SVG 1.1//EN" "http://www.w3.org/Graphics/SVG/1.1/DTD/svg11.dtd">
<svg version="1.1" xmlns="http://www.w3.org/2000/svg" xmlns:xlink="http://www.w3.org/1999/xlink" x="0px" y="0px"
	 width="16.021px" height="16.021px" viewBox="0 0 16.021 16.021" enable-background="new 0 0 16.021 16.021" xml:space="preserve">
<path d="M12.549,0H3.471C1.554,0,0,1.556,0,3.472v9.078c0,1.916,1.554,3.472,3.471,3.472h9.078c1.917,0,3.471-1.556,3.471-3.472
	V3.472C16.021,1.556,14.466,0,12.549,0z M12.567,10.219c-1.224,1.408-3.96,3.124-4.583,3.387c-0.622,0.263-0.531-0.167-0.505-0.313
	c0.015-0.089,0.083-0.501,0.083-0.501c0.02-0.147,0.041-0.38-0.019-0.527c-0.065-0.162-0.324-0.246-0.514-0.287
	c-2.803-0.37-4.878-2.331-4.878-4.671c0-2.609,2.617-4.733,5.833-4.733c3.216,0,5.833,2.124,5.833,4.733
	C13.817,8.352,13.413,9.292,12.567,10.219L12.567,10.219z"/>
<path d="M6.799,6.046H6.39c-0.063,0-0.114,0.05-0.114,0.113V8.7c0,0.063,0.051,0.113,0.114,0.113h0.409
	c0.063,0,0.114-0.051,0.114-0.113V6.159C6.913,6.096,6.862,6.046,6.799,6.046"/>
<path d="M9.615,6.046H9.206c-0.063,0-0.113,0.05-0.113,0.113v1.509L7.928,6.096C7.925,6.092,7.922,6.088,7.919,6.084
	c0,0-0.001-0.001-0.001-0.001C7.916,6.081,7.914,6.077,7.911,6.077c0-0.001-0.001-0.002-0.001-0.002
	C7.908,6.073,7.905,6.07,7.903,6.069C7.902,6.068,7.901,6.068,7.9,6.066C7.898,6.065,7.897,6.064,7.895,6.063
	c-0.001,0-0.002-0.001-0.003-0.001C7.889,6.06,7.887,6.059,7.885,6.058c-0.001,0-0.002-0.002-0.003-0.002
	c-0.002,0-0.004-0.002-0.007-0.002c-0.001,0-0.002-0.002-0.003-0.002c-0.002,0-0.004-0.002-0.006-0.002
	C7.863,6.049,7.862,6.049,7.86,6.048c-0.002,0-0.004,0-0.006,0C7.853,6.047,7.851,6.047,7.85,6.047c-0.002,0-0.004,0-0.006-0.001
	c-0.002,0-0.004,0-0.006,0c-0.001,0-0.003,0-0.004,0H7.424c-0.063,0-0.114,0.05-0.114,0.113V8.7c0,0.063,0.051,0.113,0.114,0.113
	h0.409c0.063,0,0.113-0.051,0.113-0.113V7.19l1.166,1.574c0.009,0.013,0.019,0.022,0.029,0.029c0,0,0,0,0.001,0
	C9.146,8.796,9.148,8.798,9.15,8.798C9.151,8.8,9.152,8.8,9.153,8.8c0.001,0.002,0.004,0.002,0.005,0.003
	c0.002,0.001,0.003,0.002,0.006,0.002c0.001,0.001,0.002,0.002,0.003,0.002C9.17,8.808,9.173,8.808,9.175,8.81c0,0,0.001,0,0.002,0
	c0.009,0.002,0.019,0.004,0.029,0.004h0.409c0.063,0,0.114-0.051,0.114-0.113V6.159C9.729,6.096,9.678,6.046,9.615,6.046"/>
<path d="M5.813,8.177H4.701V6.159c0-0.063-0.051-0.113-0.114-0.113H4.178c-0.062,0-0.113,0.05-0.113,0.113V8.7l0,0
	c0,0.031,0.013,0.058,0.032,0.077c0,0.002,0.001,0.002,0.001,0.003c0,0,0.001,0.001,0.002,0.001c0.02,0.021,0.047,0.032,0.078,0.032
	l0,0h1.635c0.062,0,0.114-0.051,0.114-0.113V8.292C5.927,8.229,5.875,8.177,5.813,8.177"/>
<path d="M11.875,6.681c0.063,0,0.113-0.05,0.113-0.112V6.159c0-0.063-0.051-0.113-0.113-0.113H10.24l0,0
	c-0.031,0-0.059,0.012-0.079,0.031c0,0,0,0-0.001,0c-0.001,0.002-0.001,0.002-0.002,0.002c-0.02,0.021-0.032,0.05-0.032,0.08l0,0
	V8.7l0,0c0,0.031,0.012,0.058,0.032,0.077c0,0.002,0,0.002,0.001,0.003c0,0,0,0.001,0.001,0.001
	c0.021,0.021,0.048,0.032,0.079,0.032l0,0h1.635c0.063,0,0.113-0.051,0.113-0.113V8.292c0-0.063-0.051-0.115-0.113-0.115h-1.112
	v-0.43h1.112c0.063,0,0.113-0.05,0.113-0.113V7.226c0-0.063-0.051-0.114-0.113-0.114h-1.112V6.681H11.875z"/>
</svg>
