<svg xmlns="http://www.w3.org/2000/svg" width="1920" height="1080" viewBox="0 0 1920 1080">
  <defs>
    <style>
      .cls-1 {
        fill: #fff;
      }

      .cls-2 {
        fill: #41ab8a;
      }

      .cls-3 {
        fill: none;
      }

      .cls-4 {
        fill: #22445d;
      }

      .cls-5 {
        fill: #162e41;
      }

      .cls-6 {
        fill: #24394a;
      }

      .cls-7 {
        fill: #0d2333;
      }

      .cls-8 {
        fill: #23455d;
      }
    </style>
  </defs>
  <title>segitiga abstrak</title>
  <g id="object">
    <rect class="cls-1" width="1920" height="1080"/>
    <polygon class="cls-2" points="1327.32 933.12 1462.5 933.12 1462.51 933.12 1394.92 1020.35 1394.9 1020.35 1327.31 933.12 1327.32 933.12"/>
    <polygon class="cls-3" points="1551.89 989.43 1490.06 909.64 1490.07 909.63 1490.06 909.64 1551.89 989.43"/>
    <polygon class="cls-3" points="1575.86 1020.34 1591.62 1000 1575.86 1020.34 1575.86 1020.34"/>
    <polygon class="cls-2" points="1833.21 909.64 1747.43 1020.34 1747.41 1020.34 1661.64 909.64 1661.64 909.64 1661.64 909.64 1661.65 909.63 1833.2 909.63 1833.21 909.64"/>
    <polygon class="cls-2" points="1833.21 688.21 1918.99 798.92 1919.01 798.92 1920 797.64 1920 688.2 1833.22 688.2 1833.21 688.21"/>
    <polygon class="cls-4" points="1747.43 798.91 1833.21 688.21 1918.99 798.91 1747.43 798.91"/>
    <polygon class="cls-2" points="1919 798.93 1833.22 909.63 1833.2 909.63 1747.42 798.93 1747.43 798.91 1918.99 798.91 1919 798.93"/>
    <polygon class="cls-2" points="1833.21 466.79 1918.99 577.49 1747.43 577.49 1833.21 466.79"/>
    <polygon class="cls-2" points="1833.22 466.78 1920 466.78 1920 357.36 1919 356.07 1833.22 466.78"/>
    <polygon class="cls-4" points="1833.21 909.64 1918.99 1020.34 1919.01 1020.34 1920 1019.06 1920 909.63 1833.22 909.63 1833.21 909.64"/>
    <polygon class="cls-2" points="1701.2 1080 1793.64 1080 1747.42 1020.35 1701.2 1080"/>
    <polygon class="cls-5" points="1747.43 577.49 1747.42 577.49 1661.64 466.79 1661.64 466.78 1833.2 466.78 1833.21 466.79 1747.43 577.49"/>
    <polygon class="cls-4" points="1551.89 989.43 1575.84 1020.34 1404.29 1020.34 1490.06 909.64 1551.89 989.43"/>
    <polygon class="cls-4" points="1490.06 909.64 1551.89 989.43 1575.84 1020.34 1575.85 1020.35 1575.86 1020.37 1575.88 1020.35 1622.1 1080 1701.2 1080 1747.42 1020.35 1793.64 1080 1920 1080 1920 1021.64 1919 1020.35 1919.01 1020.34 1918.99 1020.34 1833.21 909.64 1747.43 1020.34 1575.86 1020.34 1591.62 1000 1661.64 909.64 1661.65 909.63 1661.63 909.63 1575.85 798.93 1490.07 909.63 1490.06 909.64"/>
    <polygon class="cls-6" points="1661.65 909.63 1661.63 909.63 1575.85 798.93 1575.86 798.91 1747.41 798.91 1747.42 798.93 1661.65 909.63"/>
    <polygon class="cls-7" points="1918.99 798.91 1919.01 798.91 1919 798.93 1918.99 798.91"/>
    <polygon class="cls-7" points="1833.22 909.63 1833.21 909.64 1833.2 909.63 1833.22 909.63"/>
    <polygon class="cls-5" points="1918.1 1020.33 1746.55 1020.33 1832.32 909.63 1918.1 1020.33"/>
    <polygon class="cls-4" points="1566.89 671.32 1566.88 671.32 1596.69 632.85 1626.5 671.32 1566.89 671.32"/>
    <polygon class="cls-4" points="1666.97 443.28 1666.97 443.28 1713.77 382.88 1760.58 443.28 1666.97 443.28"/>
    <polygon class="cls-7" points="1661.63 466.78 1661.64 466.78 1661.64 466.79 1661.63 466.78"/>
    <polygon class="cls-7" points="1918.99 577.49 1919.01 577.49 1919 577.5 1918.99 577.49"/>
    <polygon class="cls-7" points="1404.28 1020.35 1404.27 1020.34 1404.29 1020.34 1404.28 1020.35"/>
    <polygon class="cls-7" points="1919 356.07 1919 356.07 1918.99 356.07 1919 356.07"/>
    <polygon class="cls-7" points="1490.05 909.63 1490.07 909.63 1490.06 909.64 1490.05 909.63"/>
    <polygon class="cls-7" points="1833.2 466.78 1833.22 466.78 1833.21 466.79 1833.2 466.78"/>
    <polygon class="cls-7" points="1575.84 798.91 1575.86 798.91 1575.85 798.93 1575.84 798.91"/>
    <polygon class="cls-7" points="1661.65 688.2 1833.2 688.2 1833.2 688.2 1833.2 688.2 1833.22 688.2 1833.22 688.2 1833.21 688.21 1747.43 798.91 1747.42 798.93 1747.41 798.91 1661.64 688.21 1661.63 688.2 1661.65 688.2 1661.65 688.2 1661.65 688.2"/>
    <g>
      <path class="cls-2" d="M2160.58,255.57Z" transform="translate(-498.94 432.63)"/>
      <polygon class="cls-2" points="1918.99 577.49 1919 577.5 1833.22 688.2 1747.43 577.49 1918.99 577.49"/>
      <polygon class="cls-2" points="1747.43 577.49 1833.22 688.2 1661.61 688.2 1747.43 577.49"/>
    </g>
    <polygon class="cls-8" points="1834.25 688.21 1834.25 688.21 1748.44 577.53 1748.45 577.51 1748.44 577.5 1919.99 577.5 1920 577.51 1834.25 688.21"/>
    <polygon class="cls-2" points="1514.02 940.54 1490.06 909.63 1661.62 909.63 1575.84 1020.33 1514.02 940.54"/>
    <polygon class="cls-2" points="1635.24 675.98 1686.73 742.43 1686.73 742.43 1686.72 742.43 1583.74 742.43 1635.24 675.98"/>
    <polygon class="cls-2" points="1918.52 1020.28 1872.24 1080 1918.52 1080 1918.52 1020.28"/>
    <polygon class="cls-5" points="1834.23 688.2 1920 688.2 1920 577.5 1834.23 688.2"/>
    <polygon class="cls-5" points="1834.23 909.62 1920 909.62 1920 798.92 1834.23 909.62"/>
    <polygon class="cls-4" points="1327.31 675.98 1327.31 675.98 1297.51 714.44 1267.7 675.98 1327.31 675.98"/>
    <polygon class="cls-2" points="1424.72 754.02 1476.21 820.47 1476.21 820.48 1476.2 820.48 1373.22 820.48 1424.72 754.02"/>
  </g>
</svg>
