<svg id="Layer_1" data-name="Layer 1" xmlns="http://www.w3.org/2000/svg" width="1920" height="1080" viewBox="0 0 1920 1080">
  <defs>
    <style>
      .cls-1 {
        fill: #fdfefe;
      }

      .cls-2 {
        fill: #20a04b;
      }

      .cls-3 {
        fill: #156734;
      }
    </style>
  </defs>
  <title>TES2</title>
  <rect class="cls-1" width="1920" height="1080"/>
  <path class="cls-2" d="M1920,948.5V1080H0V971.35c143.76-4.27,289.9,29.92,432.33,6.56,99.27-16.27,193.89-60.16,294.43-63.3,90.58-2.83,178.79,27.69,269,35.67,103.59,9.15,207.13-11.51,310.36-24q15.51-1.87,31.06-3.49A1980.15,1980.15,0,0,1,1920,948.5Z"/>
  <g>
    <path class="cls-3" d="M1920,796.37V1080H1116.14c20.59-25.56,52.43-49.76,67.06-61.1a918.2,918.2,0,0,1,154-96.07c75.7-37.65,156.36-65.8,238.63-85.53q30.83-7.39,62-13.29,9.59-1.83,19.2-3.51c70-12.31,141-19.36,212.22-22.51q11.58-.53,23.16-.9Q1906.19,796.64,1920,796.37Z"/>
    <polygon class="cls-3" points="1755.49 771.22 1657.01 771.22 1657.01 853 1637.81 853 1637.81 771.22 1539.33 771.22 1593.37 708.67 1550.29 708.67 1598.85 646.12 1563.6 646.12 1610.15 576.63 1589.33 576.63 1647.41 489.94 1705.49 576.63 1684.66 576.63 1731.22 646.12 1695.97 646.12 1744.53 708.67 1701.45 708.67 1755.49 771.22"/>
    <polygon class="cls-3" points="1920 424.68 1920 705.35 1892.39 705.35 1892.39 803.96 1869.23 803.96 1869.23 705.35 1750.49 705.35 1815.65 629.93 1763.7 629.93 1822.26 554.51 1779.75 554.51 1835.89 470.72 1810.77 470.72 1880.81 366.19 1920 424.68"/>
  </g>
</svg>
