<?xml version="1.0" encoding="utf-8"?>
<!-- Generator: Adobe Illustrator 16.0.0, SVG Export Plug-In . SVG Version: 6.00 Build 0)  -->
<!DOCTYPE svg PUBLIC "-//W3C//DTD SVG 1.1//EN" "http://www.w3.org/Graphics/SVG/1.1/DTD/svg11.dtd">
<svg version="1.1" xmlns="http://www.w3.org/2000/svg" xmlns:xlink="http://www.w3.org/1999/xlink" x="0px" y="0px"
	 width="15.996px" height="16.12px" viewBox="0 0 15.996 16.12" enable-background="new 0 0 15.996 16.12" xml:space="preserve">
<g>
	<g>
		<g>
			<g>
				<path fill-rule="evenodd" clip-rule="evenodd" fill="#1C1C1C" d="M11.824,9.637c-0.196-0.108-1.163-0.629-1.345-0.703
					c-0.181-0.074-0.313-0.112-0.455,0.083C9.884,9.211,9.482,9.648,9.361,9.778c-0.123,0.13-0.24,0.143-0.438,0.033
					C8.729,9.704,8.09,9.468,7.35,8.758C6.773,8.204,6.396,7.533,6.287,7.326C6.177,7.122,6.285,7.018,6.39,6.922
					C6.483,6.835,6.6,6.695,6.704,6.581c0.104-0.113,0.141-0.195,0.212-0.326c0.072-0.132,0.043-0.25-0.003-0.352
					C6.867,5.801,6.503,4.8,6.352,4.392C6.199,3.985,6.029,4.045,5.912,4.041S5.662,4.016,5.529,4.01
					C5.395,4.005,5.176,4.047,4.985,4.241C4.794,4.435,4.258,4.899,4.221,5.886c-0.037,0.987,0.646,1.967,0.74,2.103
					c0.096,0.14,1.304,2.276,3.311,3.156c2.008,0.879,2.02,0.61,2.387,0.591c0.369-0.02,1.204-0.44,1.389-0.902
					c0.186-0.462,0.2-0.862,0.153-0.948C12.152,9.799,12.021,9.744,11.824,9.637L11.824,9.637z M8.143,14.39
					c-1.327,0-2.564-0.398-3.596-1.081l-2.513,0.805l0.817-2.428c-0.783-1.078-1.246-2.402-1.246-3.833
					c0-3.605,2.934-6.538,6.537-6.538c3.605,0,6.537,2.933,6.537,6.538C14.68,11.457,11.748,14.39,8.143,14.39L8.143,14.39z
					 M8.143,0C3.806,0,0.29,3.516,0.29,7.853c0,1.483,0.412,2.87,1.128,4.054L0,16.12l4.348-1.393
					c1.125,0.623,2.418,0.977,3.795,0.977c4.338,0,7.854-3.515,7.854-7.852S12.48,0,8.143,0L8.143,0z"/>
			</g>
		</g>
	</g>
</g>
</svg>
